<svg width="28" height="30" viewBox="0 0 28 30" fill="none" xmlns="http://www.w3.org/2000/svg">
<path d="M2.66666 6.5875L4.11733 5L23.0667 25.9L21.6273 27.5L18.1367 23.65C16.8333 24.125 15.4507 24.375 14 24.375C8.33333 24.375 3.49399 20.4875 1.53333 15C2.31533 12.8 3.56199 10.8625 5.14866 9.325L2.66666 6.5875ZM14 11.25C14.9017 11.25 15.7665 11.6451 16.4042 12.3483C17.0418 13.0516 17.4 14.0054 17.4 15C17.4006 15.4257 17.3354 15.8484 17.2073 16.25L12.8667 11.4625C13.2308 11.3212 13.614 11.2494 14 11.25ZM14 5.625C19.6667 5.625 24.506 9.5125 26.4667 15C25.5411 17.5912 23.9694 19.8404 21.9333 21.4875L20.324 19.7C21.8913 18.5043 23.1554 16.8864 23.996 15C23.0799 12.9373 21.6574 11.1995 19.8903 9.98419C18.1233 8.76884 16.0825 8.1247 14 8.125C12.7647 8.125 11.552 8.35 10.4187 8.75L8.67333 6.8375C10.3053 6.0625 12.1073 5.625 14 5.625ZM4.00399 15C4.92012 17.0627 6.34257 18.8005 8.10964 20.0158C9.87672 21.2312 11.9175 21.8753 14 21.875C14.782 21.875 15.5527 21.7875 16.2667 21.6125L13.6827 18.75C12.894 18.6568 12.1581 18.2686 11.5973 17.65C11.0365 17.0315 10.6845 16.2198 10.6 15.35L6.74666 11.0875C5.62466 12.15 4.68399 13.475 4.00399 15Z" fill="#FF462D"/>
</svg>
