<svg width="79" height="80" viewBox="0 0 79 80" fill="none" xmlns="http://www.w3.org/2000/svg">
<path d="M15.932 46.5188V50.7748H1.12V46.5188H6.468V43.7188C5.77733 43.4948 5.13333 43.1775 4.536 42.7668C3.95733 42.3375 3.45333 41.8335 3.024 41.2548C2.61333 40.6761 2.28667 40.0415 2.044 39.3508C1.82 38.6601 1.708 37.9321 1.708 37.1668C1.708 36.2148 1.88533 35.3281 2.24 34.5068C2.61333 33.6668 3.108 32.9388 3.724 32.3228C4.34 31.6881 5.05867 31.1935 5.88 30.8388C6.72 30.4655 7.616 30.2788 8.568 30.2788C9.52 30.2788 10.4067 30.4655 11.228 30.8388C12.068 31.1935 12.796 31.6881 13.412 32.3228C14.0467 32.9388 14.5413 33.6668 14.896 34.5068C15.2693 35.3281 15.456 36.2148 15.456 37.1668C15.456 37.9321 15.3347 38.6601 15.092 39.3508C14.868 40.0228 14.5413 40.6481 14.112 41.2268C13.7013 41.7868 13.2067 42.2815 12.628 42.7108C12.0493 43.1401 11.424 43.4668 10.752 43.6908V46.5188H15.932ZM8.568 35.1228C8.008 35.1228 7.52267 35.3188 7.112 35.7108C6.72 36.1028 6.524 36.5881 6.524 37.1668C6.524 37.7268 6.72 38.2121 7.112 38.6228C7.52267 39.0148 8.008 39.2108 8.568 39.2108C9.128 39.2108 9.604 39.0148 9.996 38.6228C10.4067 38.2121 10.612 37.7268 10.612 37.1668C10.612 36.5881 10.4067 36.1028 9.996 35.7108C9.604 35.3188 9.128 35.1228 8.568 35.1228ZM1.4 63.2068V54.4428C1.4 53.8268 1.60533 53.3135 2.016 52.9028C2.42667 52.4921 2.93067 52.2868 3.528 52.2868H5.656V57.8308C5.656 58.5588 6.02 58.9228 6.748 58.9228H15.96V63.2068H1.4ZM18.557 33.9188C18.949 33.5081 19.4437 33.3028 20.041 33.3028H27.573V37.5308H23.233C22.8783 37.5308 22.6077 37.6988 22.421 38.0348C22.253 38.3708 22.169 38.7255 22.169 39.0988V41.7028C22.169 42.4121 22.5237 42.7668 23.233 42.7668H27.573V46.9948H17.941V35.4308C17.941 34.8148 18.1463 34.3108 18.557 33.9188ZM38.241 42.3748H35.105V46.9948H30.821V33.3028H35.105V38.0908H38.241V42.3748ZM41.3357 33.9188C41.7277 33.5081 42.2317 33.3028 42.8477 33.3028H52.1717V46.9948H40.7197V35.4308C40.7197 34.8148 40.925 34.3108 41.3357 33.9188ZM59.8157 46.9948H55.5317V33.3028H59.8157V46.9948ZM44.9757 41.6748C44.9757 42.3841 45.3303 42.7388 46.0397 42.7388H47.8597V37.5588H46.0397C45.3303 37.5588 44.9757 37.9135 44.9757 38.6228V41.6748ZM76.7992 46.5188V50.8028H61.9872V46.5188H67.3352V44.2228H61.9872V33.7788C61.9872 33.1628 62.1925 32.6495 62.6032 32.2388C63.0139 31.8281 63.5272 31.6228 64.1432 31.6228H64.6192L64.6472 31.5948H71.5352C72.2632 31.5948 72.6272 31.2401 72.6272 30.5308V28.6828C72.6272 27.9735 72.2632 27.6188 71.5352 27.6188H61.9872V23.3068H76.9392V35.9348H67.3632C66.6539 35.9348 66.2992 36.2895 66.2992 36.9988V38.8468C66.2992 39.5748 66.6539 39.9388 67.3632 39.9388H76.9392V44.2228H71.6192V46.5188H76.7992Z" fill="black"/>
<path d="M21.3807 53.7342C38.165 59.8894 56.5301 60.2299 73.531 54.7011L76.0388 53.8856L75.3072 57.7985C72.9035 70.654 61.6641 79.9604 48.586 79.9241C35.2183 79.8871 23.8733 70.1108 21.8619 56.8953L21.3807 53.7342Z" fill="#FF462D"/>
<path d="M4.24034 23.6949C3.5366 20.2613 6.17192 17.0507 9.67684 17.0715L9.68461 15.7662C9.71819 10.1246 15.4932 6.34275 20.6779 8.56707L23.5535 6.18957C27.609 2.83664 33.5969 3.32253 37.0587 7.28547C40.1439 5.53505 44.0658 6.70356 45.69 9.85711L46.8712 12.1507L47.8304 12.1564C52.0792 12.1817 55.1106 16.2839 53.8874 20.3529C57.505 20.7705 58.5869 25.5043 55.5118 27.455C39.1754 31.217 22.1712 30.9692 5.95125 26.7329L4.80144 26.4326L4.24034 23.6949Z" fill="#FF462D"/>
</svg>
