<svg width="201" height="233" viewBox="0 0 201 233" fill="none" xmlns="http://www.w3.org/2000/svg">
<path d="M13.5016 48.174C15.1797 38.2577 23.7689 31 33.8262 31C40.1873 31 46.1922 28.0631 50.0976 23.0419L52.9731 19.3448C60.2414 9.99982 72.301 5.76551 83.8161 8.51538L88.0724 9.53181C94.809 11.1405 101.872 10.7008 108.357 8.26892L109.933 7.67811C122.298 3.04111 136.241 6.40224 145.135 16.1642C148.918 20.3162 153.719 23.4094 159.063 25.1384L168.639 28.2364C178.512 31.4308 185.539 40.1925 186.514 50.5241L186.946 55.108C187.244 58.2668 188.652 61.2177 190.92 63.437C194.046 66.4973 195.485 70.8897 194.774 75.2066L193.408 83.5L191.413 101.211C185.64 152.468 140.396 190.003 88.9541 186.213C38.8029 182.518 1.34013e-05 140.287 3.05176e-05 90L1.45441e-05 81.1019C5.3041e-06 75.9547 2.22812 71.0595 6.1096 67.679C9.21234 64.9767 11.2831 61.283 11.9697 57.2262L13.5016 48.174Z" fill="white"/>
<path d="M4.9079 90C60.5266 110.344 121.386 111.309 177.621 92.7367L185.908 90L183.444 103.466C175.649 146.059 138.532 177 95.2313 177C50.9778 177 13.3405 144.719 6.60022 100.981L4.9079 90Z" fill="#FF462D"/>
<path d="M19.8539 72.8913C20.276 69.6851 19.9808 66.4251 18.9899 63.3469C13.954 47.7032 27.3457 32.3104 43.5357 35.1331L47.3479 35.7978C54.3226 18.9628 73.0497 10.2985 90.396 15.881L98.1145 18.365C99.6401 19.008 101.361 19.0068 102.886 18.3617L110.661 15.0716C122.879 9.90139 137.033 14.7114 143.571 26.256L145.08 28.9213H149.665C168.145 28.9213 182.254 45.4314 179.373 63.6854C188.823 65.5885 192.56 77.0925 186.032 84.1863L184.859 85.4607C131.41 100.221 74.9987 100.514 21.3993 86.3087L18.1995 85.4607L19.8539 72.8913Z" fill="#D02812"/>
<path d="M8.06271 82.1119C6.45602 73.4032 13.273 65.424 22.1257 65.6512L22.2104 62.3542C22.5762 48.1047 37.3528 38.839 50.3391 44.7161L57.7217 38.8535C68.1332 30.5856 83.2349 32.1113 91.7824 42.2945C99.6632 38.0264 109.512 41.1735 113.458 49.2206L116.328 55.0733L118.75 55.1355C129.482 55.411 136.935 65.9245 133.643 76.1424C142.76 77.3773 145.257 89.3893 137.392 94.1638C95.9375 102.853 52.9955 101.381 12.2333 89.8714L9.34376 89.0555L8.06271 82.1119Z" fill="#FF462D"/>
<path d="M24.7548 175.209C27.2545 167.976 34.5919 163.587 42.1468 164.806L45.1252 165.286C47.0351 165.594 48.8464 166.345 50.4139 167.479C52.5267 169.007 55.0678 169.83 57.6754 169.83H80.8104H123.884C128.949 169.83 133.054 165.725 133.054 160.66C133.054 155.877 136.932 152 141.715 152H160.248C165.031 152 168.908 155.877 168.908 160.66V183.075V205.491C168.908 208.585 166.399 211.094 163.304 211.094H151.493H137.681C135.614 211.094 133.86 209.575 133.566 207.528C133.273 205.482 131.519 203.962 129.452 203.962H62.856C60.0424 203.962 57.7616 206.243 57.7616 209.057V227.906C57.7616 230.719 55.4808 233 52.6673 233H27.1401C25.7573 233 24.4308 232.453 23.4504 231.478C22.4631 230.496 21.908 229.16 21.908 227.768V220.264V209.057V198.702C21.908 197.297 22.8498 196.065 24.2066 195.697C25.9898 195.214 26.962 193.292 26.2956 191.569L25.1963 188.726C25.0532 188.356 24.9481 187.973 24.8825 187.581L24.1074 182.956C23.6725 180.36 23.895 177.697 24.7548 175.209Z" fill="white"/>
<path d="M54.358 198.6V206.2H27.908V198.6H37.458V193.6C36.2246 193.2 35.0746 192.633 34.008 191.9C32.9746 191.133 32.0746 190.233 31.308 189.2C30.5746 188.167 29.9913 187.033 29.558 185.8C29.158 184.567 28.958 183.267 28.958 181.9C28.958 180.2 29.2746 178.617 29.908 177.15C30.5746 175.65 31.458 174.35 32.558 173.25C33.658 172.117 34.9413 171.233 36.408 170.6C37.908 169.933 39.508 169.6 41.208 169.6C42.908 169.6 44.4913 169.933 45.958 170.6C47.458 171.233 48.758 172.117 49.858 173.25C50.9913 174.35 51.8746 175.65 52.508 177.15C53.1746 178.617 53.508 180.2 53.508 181.9C53.508 183.267 53.2913 184.567 52.858 185.8C52.458 187 51.8746 188.117 51.108 189.15C50.3746 190.15 49.4913 191.033 48.458 191.8C47.4246 192.567 46.308 193.15 45.108 193.55V198.6H54.358ZM41.208 178.25C40.208 178.25 39.3413 178.6 38.608 179.3C37.908 180 37.558 180.867 37.558 181.9C37.558 182.9 37.908 183.767 38.608 184.5C39.3413 185.2 40.208 185.55 41.208 185.55C42.208 185.55 43.058 185.2 43.758 184.5C44.4913 183.767 44.858 182.9 44.858 181.9C44.858 180.867 44.4913 180 43.758 179.3C43.058 178.6 42.208 178.25 41.208 178.25ZM28.408 228.4V212.75C28.408 211.65 28.7746 210.733 29.508 210C30.2413 209.267 31.1413 208.9 32.208 208.9H36.008V218.8C36.008 220.1 36.658 220.75 37.958 220.75H54.408V228.4H28.408ZM59.0455 176.1C59.7455 175.367 60.6288 175 61.6955 175H75.1455V182.55H67.3955C66.7621 182.55 66.2788 182.85 65.9455 183.45C65.6455 184.05 65.4955 184.683 65.4955 185.35V190C65.4955 191.267 66.1288 191.9 67.3955 191.9H75.1455V199.45H57.9455V178.8C57.9455 177.7 58.3121 176.8 59.0455 176.1ZM94.1955 191.2H88.5955V199.45H80.9455V175H88.5955V183.55H94.1955V191.2ZM99.7216 176.1C100.422 175.367 101.322 175 102.422 175H119.072V199.45H98.6216V178.8C98.6216 177.7 98.9883 176.8 99.7216 176.1ZM132.722 199.45H125.072V175H132.722V199.45ZM106.222 189.95C106.222 191.217 106.855 191.85 108.122 191.85H111.372V182.6H108.122C106.855 182.6 106.222 183.233 106.222 184.5V189.95ZM163.049 198.6V206.25H136.599V198.6H146.149V194.5H136.599V175.85C136.599 174.75 136.966 173.833 137.699 173.1C138.433 172.367 139.349 172 140.449 172H141.299L141.349 171.95H153.649C154.949 171.95 155.599 171.317 155.599 170.05V166.75C155.599 165.483 154.949 164.85 153.649 164.85H136.599V157.15H163.299V179.7H146.199C144.933 179.7 144.299 180.333 144.299 181.6V184.9C144.299 186.2 144.933 186.85 146.199 186.85H163.299V194.5H153.799V198.6H163.049Z" fill="black"/>
</svg>
