<svg width="170" height="170" viewBox="0 0 170 170" fill="none" xmlns="http://www.w3.org/2000/svg">
<path d="M119 68C119 77.0174 115.418 85.6654 109.042 92.0417C102.665 98.4179 94.0174 102 85 102C75.9826 102 67.3346 98.4179 60.9584 92.0417C54.5821 85.6654 51 77.0174 51 68C51 58.9827 54.5821 50.3346 60.9584 43.9584C67.3346 37.5822 75.9826 34 85 34C94.0174 34 102.665 37.5822 109.042 43.9584C115.418 50.3346 119 58.9827 119 68Z" fill="#FF462D"/>
<path fill-rule="evenodd" clip-rule="evenodd" d="M81.532 169.932C36.1973 168.113 0 130.781 0 85C0 38.0545 38.0545 0 85 0C131.945 0 170 38.0545 170 85C170 131.945 131.945 170 85 170H83.8355C83.0648 170 82.297 169.977 81.532 169.932ZM30.4555 138.635C29.82 136.81 29.6037 134.865 29.8226 132.945C30.0415 131.025 30.6901 129.179 31.7202 127.544C32.7503 125.908 34.1354 124.526 35.7728 123.5C37.4101 122.473 39.2577 121.829 41.1783 121.614C74.3113 117.946 95.8927 118.278 128.864 121.69C130.787 121.891 132.64 122.527 134.279 123.551C135.919 124.576 137.304 125.96 138.328 127.601C139.352 129.241 139.988 131.093 140.188 133.016C140.387 134.94 140.146 136.883 139.481 138.699C153.613 124.402 161.526 105.102 161.5 85C161.5 42.7507 127.249 8.5 85 8.5C42.7507 8.5 8.5 42.7507 8.5 85C8.5 105.893 16.8768 124.831 30.4555 138.635Z" fill="#FF462D"/>
</svg>
