<svg width="36" height="36" viewBox="0 0 36 36" fill="none" xmlns="http://www.w3.org/2000/svg">
<path d="M31.5711 28.9844C29.4889 25.3846 26.2801 22.8033 22.5353 21.5797C24.3876 20.477 25.8268 18.7967 26.6317 16.797C27.4367 14.7972 27.5629 12.5885 26.9911 10.5101C26.4193 8.4316 25.181 6.59831 23.4664 5.29173C21.7518 3.98515 19.6557 3.27753 17.5 3.27753C15.3443 3.27753 13.2482 3.98515 11.5336 5.29173C9.81902 6.59831 8.58072 8.4316 8.00889 10.5101C7.43706 12.5885 7.56331 14.7972 8.36825 16.797C9.1732 18.7967 10.6123 20.477 12.4646 21.5797C8.71991 22.802 5.51112 25.3832 3.42889 28.9844C3.35254 29.1089 3.30189 29.2474 3.27994 29.3918C3.25799 29.5362 3.26518 29.6836 3.3011 29.8251C3.33701 29.9667 3.40091 30.0996 3.48904 30.2161C3.57717 30.3326 3.68773 30.4302 3.8142 30.5033C3.94068 30.5763 4.0805 30.6233 4.22543 30.6415C4.37036 30.6596 4.51745 30.6485 4.65803 30.6089C4.7986 30.5693 4.92982 30.5019 5.04394 30.4107C5.15805 30.3196 5.25275 30.2065 5.32245 30.0781C7.89823 25.6266 12.451 22.9688 17.5 22.9688C22.549 22.9688 27.1017 25.6266 29.6775 30.0781C29.7472 30.2065 29.8419 30.3196 29.956 30.4107C30.0702 30.5019 30.2014 30.5693 30.3419 30.6089C30.4825 30.6485 30.6296 30.6596 30.7745 30.6415C30.9195 30.6233 31.0593 30.5763 31.1858 30.5033C31.3122 30.4302 31.4228 30.3326 31.5109 30.2161C31.5991 30.0996 31.663 29.9667 31.6989 29.8251C31.7348 29.6836 31.742 29.5362 31.72 29.3918C31.6981 29.2474 31.6474 29.1089 31.5711 28.9844ZM9.84374 13.125C9.84374 11.6107 10.2928 10.1305 11.134 8.87142C11.9753 7.61235 13.1711 6.63103 14.5701 6.05155C15.9691 5.47206 17.5085 5.32044 18.9936 5.61586C20.4788 5.91128 21.843 6.64047 22.9138 7.71121C23.9845 8.78196 24.7137 10.1462 25.0091 11.6313C25.3045 13.1165 25.1529 14.6559 24.5734 16.0549C23.994 17.4539 23.0126 18.6497 21.7536 19.4909C20.4945 20.3322 19.0143 20.7812 17.5 20.7812C15.4701 20.7791 13.524 19.9717 12.0886 18.5364C10.6532 17.101 9.84591 15.1549 9.84374 13.125Z" fill="#888888"/>
</svg>
